<svg xmlns="http://www.w3.org/2000/svg" version="1.1" xmlns:xlink="http://www.w3.org/1999/xlink" xmlns:svgjs="http://svgjs.dev/svgjs" width="1000" height="1000" viewBox="0 0 1000 1000"><rect width="1000" height="1000" fill="#ffffff"></rect><g transform="matrix(0.7,0,0,0.7,150,281.25)"><svg viewBox="0 0 512 320" data-background-color="#ffffff" preserveAspectRatio="xMidYMid meet" height="625" width="1000" xmlns="http://www.w3.org/2000/svg" xmlns:xlink="http://www.w3.org/1999/xlink"><g id="tight-bounds" transform="matrix(1,0,0,1,0,0)"><svg viewBox="0 0 512 320" height="320" width="512"><g><svg></svg></g><g><svg viewBox="0 0 512 320" height="320" width="512"><g><path xmlns="http://www.w3.org/2000/svg" d="M96 160c0-88.366 71.634-160 160-160 88.366 0 160 71.634 160 160 0 88.366-71.634 160-160 160-88.366 0-160-71.634-160-160z" fill="#000000" fill-rule="nonzero" stroke="none" stroke-width="1" stroke-linecap="butt" stroke-linejoin="miter" stroke-miterlimit="10" stroke-dasharray="" stroke-dashoffset="0" font-family="none" font-weight="none" font-size="none" text-anchor="none" style="mix-blend-mode: normal" data-fill-palette-color="tertiary"></path></g><g transform="matrix(1,0,0,1,116.13999999999999,20.139999999999986)"><svg viewBox="0 0 279.72 279.72" height="279.72" width="279.72"><g><svg viewBox="0 0 279.72 279.72" height="279.72" width="279.72"><g><svg viewBox="0 0 279.72 279.72" height="279.72" width="279.72"><g id="textblocktransform"><svg viewBox="0 0 279.72 279.72" height="279.72" width="279.72" id="textblock"><g><svg viewBox="0 0 279.72 279.72" height="279.72" width="279.72"><g transform="matrix(1,0,0,1,57.446704652707865,57.446704652707865)"><svg viewBox="0 0 164.8265906945843 164.8265906945843" height="164.8265906945843" width="164.8265906945843"><g><circle r="82" cx="82.41329534729215" cy="82.41329534729215" fill="#000000" data-fill-palette-color="accent"></circle><svg xmlns="http://www.w3.org/2000/svg" xmlns:xlink="http://www.w3.org/1999/xlink" version="1.1" x="24.723988604187646" y="24.72398860418764" viewBox="-345.9993896484375 257.947998046875 99.75178527832031 98.05203247070312" enable-background="new -346 256 100 100" xml:space="preserve" width="115.378613486209" height="115.378613486209" class="icon-o-0" data-fill-palette-color="quaternary" id="o-0"><path d="M-246.455 327.152l-16.86-64.454c0 0-1.243-4.756-6.002-4.75l-72.96 0.08c0 0-4.759 0.004-3.515 4.761l15.835 60.538c7.148-15.684 15.203-33.301 15.795-34.599l0.423-0.924 21.84-0.021-1.048 2.253c-5.985 12.87-13.768 29.775-19.236 41.944l62.212-0.067C-249.97 331.912-245.211 331.906-246.455 327.152z" fill="#ffffff" data-fill-palette-color="quaternary"></path><path d="M-296.864 290.954l-14.839 0.015c-9.094 19.892-25.758 56.396-26.425 58.074-1.594 4.007 0.346 6.235 1.171 6.957h56.176l-1.875-4.804h-35.137c-0.044 0.002-0.107 0.005-0.184 0.005-1.988 0-3.998-1.204-4.006-3.894-0.002-0.629-0.004-1.579 13.149-30.369C-303.924 306.194-298.966 295.487-296.864 290.954z" fill="#ffffff" data-fill-palette-color="quaternary"></path></svg></g></svg></g><path d="M30.979 176.909l-1.313-4.055 4.607-1.493 4.385 13.538-4.607 1.492-1.317-4.065-20.421 6.615-1.755-5.417zM41.103 201.45v0l-14.822 6.976c-3.241 1.526-5.578 0.767-7.01-2.275v0l-2.301-4.889c-1.432-3.042-0.527-5.326 2.714-6.852v0l14.822-6.976c3.241-1.526 5.578-0.767 7.01 2.274v0l2.301 4.89c1.432 3.042 0.527 5.326-2.714 6.852zM23.268 203.551v0l16.035-7.547c0.199-0.094 0.34-0.241 0.422-0.442 0.088-0.204 0.086-0.405-0.008-0.605v0l-1.091-2.318c-0.091-0.193-0.245-0.324-0.461-0.391-0.207-0.065-0.411-0.05-0.61 0.043v0l-16.035 7.548c-0.199 0.094-0.34 0.241-0.422 0.442-0.086 0.21-0.083 0.411 0.008 0.605v0l1.091 2.318c0.094 0.199 0.247 0.33 0.461 0.391 0.207 0.065 0.411 0.05 0.61-0.044zM46.674 200.591l5.865 8.646c1.887 2.783 1.351 5.178-1.608 7.185v0l-12.895 8.746c-2.959 2.007-5.383 1.62-7.27-1.163v0l-5.865-8.646zM34.302 220.821v0l14.004-9.499c0.177-0.12 0.293-0.287 0.349-0.502 0.05-0.211 0.013-0.408-0.111-0.591v0l-1.87-2.758-15.346 10.409 1.87 2.758c0.124 0.182 0.293 0.289 0.508 0.321 0.22 0.028 0.419-0.018 0.596-0.138zM63.619 229.208v0l-11.958 11.197c-2.615 2.449-5.072 2.446-7.37-0.009v0l-3.693-3.945c-2.298-2.454-2.14-4.906 0.475-7.354v0l11.958-11.197c2.615-2.449 5.072-2.446 7.37 0.008v0l3.693 3.945c2.298 2.454 2.14 4.906-0.475 7.355zM47.294 236.693v0l12.937-12.114c0.161-0.15 0.249-0.334 0.266-0.55 0.021-0.221-0.043-0.412-0.194-0.573v0l-1.751-1.87c-0.146-0.156-0.332-0.233-0.558-0.231-0.217 0.002-0.406 0.079-0.567 0.229v0l-12.937 12.114c-0.161 0.15-0.249 0.334-0.266 0.55-0.017 0.226 0.048 0.417 0.194 0.573v0l1.751 1.87c0.15 0.161 0.337 0.238 0.558 0.231 0.217-0.002 0.406-0.079 0.567-0.229zM70.268 247.113l-3.614 5.166 5.166 3.614-2.701 3.862-9.832-6.878 15.08-21.558 9.832 6.878-2.656 3.797-5.166-3.614-3.545 5.067 4.83 3.379-2.564 3.665zM96.399 249.888l-9.799 18.964-5.058-2.614 10.023-19.399c0.101-0.196 0.12-0.4 0.058-0.613-0.057-0.21-0.18-0.363-0.37-0.461v0l-1.956-1.011c-0.19-0.098-0.389-0.111-0.6-0.039-0.204 0.075-0.356 0.21-0.457 0.406v0l-10.023 19.399-5.059-2.614 9.798-18.963c1.645-3.183 3.96-4.003 6.948-2.459v0l4.481 2.315c2.987 1.543 3.659 3.907 2.014 7.089zM110.537 271.916v0l1.049-3.925 5.23 1.397-0.881 3.297c-0.925 3.461-3.011 4.758-6.259 3.89v0l-4.95-1.322c-3.248-0.868-4.41-3.032-3.486-6.494v0l4.228-15.827c0.925-3.461 3.011-4.758 6.26-3.89v0l4.95 1.323c3.248 0.868 4.41 3.032 3.486 6.494v0l-0.641 2.397-5.23-1.397 0.819-3.065c0.057-0.213 0.035-0.415-0.066-0.608-0.099-0.199-0.254-0.327-0.467-0.384v0l-2.475-0.661c-0.206-0.055-0.405-0.022-0.596 0.1-0.183 0.117-0.303 0.282-0.36 0.494v0l-4.575 17.122c-0.057 0.213-0.035 0.415 0.066 0.608 0.105 0.201 0.261 0.329 0.467 0.384v0l2.475 0.661c0.213 0.057 0.411 0.024 0.596-0.099 0.183-0.117 0.303-0.282 0.36-0.495zM137.287 258.611v0l-1.832 16.279c-0.401 3.56-2.272 5.152-5.613 4.776v0l-5.37-0.604c-3.341-0.376-4.812-2.344-4.411-5.904v0l1.832-16.279c0.401-3.56 2.272-5.152 5.613-4.777v0l5.37 0.605c3.341 0.376 4.812 2.344 4.411 5.904zM129.724 274.9v0l1.982-17.612c0.025-0.219-0.027-0.416-0.155-0.591-0.127-0.182-0.3-0.286-0.519-0.311v0l-2.546-0.286c-0.212-0.024-0.404 0.038-0.575 0.187-0.164 0.143-0.258 0.323-0.282 0.542v0l-1.982 17.612c-0.025 0.219 0.027 0.416 0.155 0.591 0.134 0.183 0.307 0.286 0.519 0.31v0l2.545 0.287c0.219 0.025 0.41-0.038 0.575-0.187 0.164-0.143 0.258-0.323 0.283-0.542zM144.878 257.387l1.744 21.766-5.676 0.455-1.705-21.277c-0.286-3.571 1.247-5.491 4.598-5.759v0l3.003-0.241c1.968-0.158 3.424 0.378 4.365 1.608v0c0.681-1.36 2.035-2.121 4.064-2.283v0l3.003-0.241c3.345-0.268 5.161 1.384 5.446 4.955v0l1.705 21.277-5.666 0.454-1.744-21.766c-0.018-0.219-0.109-0.403-0.275-0.55-0.159-0.148-0.348-0.213-0.568-0.196v0l-2.184 0.175c-0.219 0.018-0.396 0.112-0.53 0.284-0.134 0.171-0.191 0.367-0.173 0.586v0l1.744 21.766-5.676 0.455-1.744-21.766c-0.018-0.219-0.109-0.403-0.275-0.551-0.159-0.148-0.345-0.213-0.558-0.196v0l-2.195 0.176c-0.213 0.017-0.389 0.112-0.529 0.283-0.134 0.171-0.191 0.367-0.174 0.587zM163.968 250.851l9.917-2.734c3.241-0.894 5.337 0.383 6.288 3.83v0l1.396 5.065c0.95 3.447-0.195 5.618-3.436 6.511v0l-4.428 1.221 2.744 9.956-5.489 1.514zM176.253 259.152v0l-1.742-6.318c-0.057-0.206-0.178-0.37-0.364-0.492-0.19-0.114-0.389-0.142-0.595-0.085v0l-3.058 0.843 2.173 7.882 3.059-0.843c0.206-0.057 0.361-0.186 0.464-0.388 0.099-0.193 0.12-0.393 0.063-0.599zM196.471 262.579l-8.752-20.005 5.217-2.283 8.555 19.556c1.436 3.282 0.614 5.597-2.467 6.945v0l-4.621 2.022c-3.081 1.348-5.339 0.38-6.774-2.902v0l-8.556-19.556 5.217-2.282 8.752 20.005c0.088 0.202 0.232 0.346 0.43 0.434 0.205 0.085 0.405 0.085 0.601 0v0l2.017-0.883c0.196-0.086 0.329-0.231 0.399-0.436 0.076-0.208 0.07-0.413-0.018-0.615zM199.018 241.97l-3.614 2.262-2.569-4.105 12.061-7.551 2.57 4.106-3.622 2.267 11.39 18.195-4.827 3.021zM208.864 228.633l4.182-3.423c2.602-2.13 5.037-1.809 7.307 0.963v0l13.521 16.517-4.406 3.607-5.591-6.83-3.175 2.599 5.591 6.83-4.406 3.607-13.521-16.517c-2.269-2.772-2.103-5.223 0.498-7.353zM212.334 231.845l5.585 6.822 3.175-2.599-5.585-6.822c-0.139-0.17-0.317-0.271-0.531-0.302-0.219-0.036-0.414 0.016-0.585 0.155v0l-1.982 1.623c-0.165 0.135-0.254 0.316-0.268 0.542-0.012 0.217 0.052 0.41 0.191 0.581zM241.126 228.293v0l-3.03-2.707 3.607-4.037 2.545 2.273c2.672 2.387 2.888 4.834 0.647 7.342v0l-3.413 3.821c-2.24 2.508-4.696 2.568-7.368 0.181v0l-12.217-10.914c-2.672-2.387-2.888-4.834-0.647-7.341v0l3.413-3.821c2.24-2.508 4.696-2.568 7.368-0.182v0l1.851 1.654-3.607 4.037-2.366-2.113c-0.164-0.147-0.355-0.219-0.572-0.216-0.222-0.002-0.407 0.08-0.553 0.244v0l-1.707 1.91c-0.142 0.159-0.202 0.352-0.18 0.577 0.022 0.216 0.115 0.398 0.279 0.545v0l13.216 11.807c0.164 0.147 0.355 0.219 0.573 0.216 0.227-0.003 0.411-0.085 0.553-0.244v0l1.707-1.911c0.147-0.164 0.207-0.357 0.18-0.577-0.022-0.216-0.115-0.398-0.279-0.544zM229.103 208.171l3.304-4.637 21.426 15.266-3.304 4.638zM245.297 190.304v0l14.365 7.876c3.141 1.722 3.904 4.058 2.287 7.006v0l-2.598 4.738c-1.617 2.948-3.996 3.561-7.137 1.839v0l-14.364-7.875c-3.141-1.722-3.904-4.058-2.288-7.007v0l2.598-4.738c1.617-2.948 3.996-3.561 7.137-1.839zM257.494 203.486v0l-15.54-8.521c-0.193-0.106-0.395-0.133-0.606-0.081-0.217 0.049-0.378 0.169-0.484 0.362v0l-1.231 2.247c-0.103 0.187-0.118 0.388-0.046 0.602 0.07 0.206 0.201 0.361 0.395 0.468v0l15.54 8.52c0.193 0.106 0.395 0.133 0.606 0.081 0.22-0.054 0.381-0.175 0.484-0.362v0l1.231-2.246c0.106-0.193 0.121-0.394 0.046-0.603-0.07-0.206-0.201-0.361-0.395-0.467zM251.131 173.781l20.074 7.255-1.935 5.355-20.536-7.422c-0.207-0.075-0.412-0.067-0.614 0.023-0.2 0.084-0.337 0.226-0.41 0.426v0l-0.748 2.071c-0.073 0.201-0.06 0.401 0.039 0.599 0.101 0.192 0.255 0.326 0.461 0.401v0l20.536 7.422-1.936 5.355-20.074-7.255c-3.369-1.218-4.482-3.408-3.34-6.57v0l1.715-4.744c1.143-3.162 3.399-4.134 6.768-2.916z" fill="#ffffff" data-fill-palette-color="quaternary"></path><path d="M20.641 107.925L14.867 105.915C13.878 105.571 12.897 105.251 11.927 104.955 10.962 104.662 9.922 104.353 8.806 104.028V104.028C8.544 104.17 8.183 104.316 7.721 104.466 7.261 104.61 6.797 104.724 6.33 104.809 5.86 104.9 5.44 104.93 5.069 104.9 4.696 104.876 4.445 104.753 4.318 104.532V104.532C4.151 104.241 4.217 103.837 4.517 103.32 4.815 102.809 5.208 102.31 5.695 101.822 6.189 101.337 6.726 100.931 7.306 100.603 7.893 100.277 8.395 100.145 8.812 100.205V100.205C9.654 100.322 10.683 100.563 11.897 100.929 13.12 101.291 14.464 101.773 15.929 102.375V102.375C15.919 101.898 15.968 101.248 16.078 100.424 16.191 99.594 16.355 98.726 16.572 97.82 16.782 96.911 17.025 96.02 17.3 95.148 17.575 94.277 17.867 93.559 18.176 92.995V92.995L14.925 91.864C13.722 91.445 12.675 91.123 11.786 90.898 10.894 90.68 9.916 90.548 8.851 90.502V90.502C8.76 90.499 8.656 90.431 8.54 90.299 8.428 90.175 8.335 90.026 8.261 89.852 8.187 89.678 8.132 89.503 8.094 89.327 8.048 89.156 8.043 89.017 8.08 88.91V88.91C8.225 88.494 8.586 88.157 9.163 87.898 9.732 87.644 10.405 87.476 11.183 87.393 11.96 87.311 12.768 87.305 13.604 87.378 14.447 87.452 15.217 87.625 15.914 87.895V87.895C18.177 88.803 20.356 89.635 22.451 90.393 24.547 91.151 26.657 91.927 28.782 92.723V92.723C29.401 92.974 30.082 93.292 30.823 93.678 31.569 94.071 32.255 94.487 32.88 94.923 33.505 95.36 34.008 95.792 34.388 96.222 34.765 96.642 34.894 97.023 34.775 97.363V97.363C34.703 97.571 34.419 97.656 33.924 97.617 33.422 97.577 32.826 97.472 32.137 97.303 31.447 97.133 30.737 96.939 30.008 96.721 29.281 96.496 28.639 96.301 28.082 96.135V96.135C27.226 95.894 26.261 95.593 25.185 95.233 24.11 94.873 22.807 94.445 21.278 93.948V93.948C21.141 94.423 20.967 95.033 20.757 95.779 20.538 96.53 20.297 97.325 20.032 98.166 19.766 99.012 19.474 99.872 19.157 100.743 18.839 101.614 18.507 102.417 18.16 103.151V103.151C18.657 103.324 19.192 103.524 19.763 103.751 20.327 103.976 20.894 104.194 21.463 104.407 22.038 104.621 22.574 104.828 23.069 105.029 23.571 105.232 23.986 105.408 24.315 105.558V105.558C24.953 105.837 25.623 106.215 26.326 106.692 27.022 107.168 27.65 107.658 28.209 108.163 28.763 108.66 29.205 109.135 29.535 109.589 29.858 110.041 29.975 110.396 29.885 110.654V110.654C29.865 110.711 29.791 110.78 29.664 110.863 29.528 110.95 29.386 111.021 29.24 111.076 29.09 111.123 28.928 111.162 28.754 111.193 28.583 111.218 28.439 111.196 28.321 111.127V111.127C27.449 110.59 26.348 110.059 25.019 109.533 23.695 109.015 22.236 108.479 20.641 107.925ZM21.323 73.48L21.301 72.6C21.125 72.691 20.908 72.792 20.65 72.905 20.395 73.011 20.12 73.114 19.824 73.212 19.528 73.31 19.248 73.379 18.986 73.42 18.717 73.457 18.493 73.438 18.312 73.364V73.364C18.091 73.306 17.835 73.156 17.542 72.917 17.245 72.683 17.159 72.46 17.283 72.246V72.246C17.353 72.125 17.457 72 17.594 71.871 17.736 71.745 17.865 71.635 17.982 71.541V71.541C18.247 71.309 18.563 71.084 18.93 70.865 19.296 70.645 19.658 70.447 20.016 70.269V70.269C20.549 70.069 21.26 70.034 22.148 70.164V70.164C25.065 70.708 28.059 71.224 31.132 71.711 34.21 72.202 37.585 72.761 41.255 73.388V73.388C41.908 73.474 42.584 73.658 43.284 73.941 43.993 74.221 44.623 74.529 45.176 74.866 45.735 75.206 46.166 75.552 46.47 75.906 46.774 76.26 46.857 76.555 46.72 76.792V76.792C46.636 76.936 46.389 77.036 45.979 77.091 45.567 77.137 45.109 77.149 44.605 77.126 44.104 77.113 43.62 77.083 43.153 77.035 42.681 76.985 42.341 76.946 42.134 76.918V76.918L35.143 75.984C34.968 76.777 34.685 77.716 34.295 78.801 33.904 79.886 33.289 81.098 32.449 82.439V82.439C32.743 82.702 33.178 83.155 33.754 83.798 34.327 84.432 34.912 85.107 35.507 85.822 36.096 86.535 36.647 87.213 37.16 87.858 37.663 88.505 37.973 88.975 38.09 89.266V89.266C38.221 89.597 38.3 89.947 38.325 90.316 38.349 90.686 38.246 91.123 38.014 91.629V91.629C37.96 91.721 37.869 91.865 37.74 92.06 37.608 92.261 37.463 92.458 37.304 92.652 37.146 92.845 36.978 92.995 36.801 93.1 36.624 93.206 36.478 93.225 36.363 93.158V93.158C36.241 93.088 36.189 92.899 36.205 92.592 36.225 92.279 36.215 92.05 36.176 91.904V91.904C35.884 91.411 35.496 90.85 35.012 90.222 34.532 89.588 34.03 88.95 33.509 88.307 32.983 87.671 32.461 87.055 31.942 86.461 31.42 85.872 30.961 85.367 30.566 84.944V84.944C30.496 85.066 30.386 85.195 30.237 85.332 30.094 85.473 29.938 85.621 29.77 85.778 29.596 85.932 29.415 86.077 29.227 86.215 29.036 86.344 28.868 86.427 28.722 86.466V86.466C28.416 86.543 28.088 86.569 27.74 86.544 27.386 86.516 27.116 86.417 26.929 86.247V86.247C26.844 86.167 26.863 86.008 26.986 85.77 27.105 85.539 27.195 85.344 27.255 85.186V85.186L28.004 83.897C28.145 83.654 28.276 83.441 28.398 83.258 28.52 83.074 28.596 82.956 28.626 82.904V82.904L22.754 76.475C22.284 76.01 21.923 75.503 21.67 74.955 21.411 74.404 21.296 73.912 21.322 73.48ZM24.13 73.768L23.971 73.722C24.366 74.144 24.835 74.632 25.377 75.186 25.92 75.74 26.482 76.313 27.064 76.906 27.642 77.504 28.217 78.088 28.788 78.659 29.354 79.226 29.857 79.735 30.298 80.184V80.184C30.727 79.499 31.137 78.726 31.528 77.866 31.914 77.002 32.192 76.203 32.364 75.47V75.47C30.857 75.142 29.599 74.871 28.59 74.656 27.578 74.431 26.764 74.259 26.147 74.14 25.526 74.027 25.065 73.937 24.764 73.87 24.466 73.812 24.254 73.778 24.13 73.768ZM41.779 66.923L30.443 57.115C30.211 56.914 29.916 56.852 29.557 56.93 29.203 57.003 28.819 57.192 28.406 57.496V57.496C28.239 57.607 28.039 57.752 27.806 57.93 27.573 58.117 27.375 58.157 27.212 58.05V58.05C27.106 57.959 27.028 57.83 26.978 57.663 26.927 57.487 26.895 57.3 26.881 57.102 26.862 56.91 26.872 56.72 26.91 56.533 26.944 56.341 26.988 56.194 27.042 56.09V56.09C27.552 55.032 28.208 54.263 29.01 53.784 29.813 53.305 30.504 53.154 31.085 53.329V53.329C31.198 52.475 31.481 51.511 31.933 50.437 32.385 49.364 33.019 48.356 33.836 47.412V47.412C34.687 46.429 35.612 45.711 36.61 45.261 37.604 44.806 38.611 44.57 39.631 44.553 40.652 44.536 41.644 44.715 42.607 45.09 43.566 45.461 44.431 45.98 45.203 46.648V46.648C45.642 47.028 46.05 47.509 46.428 48.092 46.802 48.68 47.065 49.349 47.219 50.099 47.368 50.855 47.365 51.704 47.211 52.647 47.057 53.59 46.666 54.632 46.039 55.775V55.775C48.151 57.311 50.39 58.225 52.758 58.518 55.125 58.81 57.517 58.574 59.936 57.808V57.808C60.358 57.697 60.679 57.718 60.898 57.873 61.112 58.023 61.19 58.218 61.132 58.459V58.459C61.086 58.675 60.872 59.05 60.49 59.584 60.107 60.108 59.587 60.581 58.932 61.002V61.002C57.768 61.715 56.524 62.103 55.199 62.165 53.88 62.232 52.561 62.11 51.242 61.799 49.923 61.478 48.663 61.027 47.462 60.447 46.262 59.867 45.209 59.274 44.304 58.667V58.667C44.05 59.003 43.715 59.445 43.301 59.996 42.877 60.546 42.392 61.137 41.847 61.768V61.768C42.578 62.401 43.287 63.04 43.972 63.686 44.657 64.332 45.331 65.016 45.993 65.739V65.739C46.162 65.921 46.479 66.305 46.942 66.891 47.41 67.472 47.867 68.115 48.316 68.821 48.773 69.526 49.123 70.212 49.366 70.88 49.608 71.549 49.585 72.049 49.297 72.382V72.382C49.262 72.423 49.165 72.484 49.005 72.567 48.845 72.649 48.658 72.708 48.443 72.742 48.228 72.776 48.01 72.773 47.79 72.732 47.573 72.687 47.398 72.553 47.264 72.331V72.331C47.129 72.099 46.88 71.791 46.516 71.406 46.157 71.025 45.731 70.59 45.237 70.1 44.738 69.616 44.195 69.102 43.607 68.558 43.014 68.01 42.405 67.465 41.779 66.923ZM40.242 60.38V60.38C40.69 59.699 41.209 58.891 41.798 57.954 42.388 57.018 42.867 56.052 43.235 55.055 43.603 54.059 43.761 53.08 43.711 52.119 43.665 51.162 43.211 50.311 42.349 49.564V49.564C42.076 49.329 41.676 49.093 41.148 48.856 40.62 48.62 40.034 48.497 39.39 48.487 38.741 48.472 38.054 48.609 37.327 48.898 36.601 49.187 35.893 49.73 35.203 50.528V50.528C34.731 51.072 34.343 51.659 34.039 52.286 33.73 52.918 33.501 53.682 33.353 54.577V54.577C34.902 55.918 36.206 57.02 37.267 57.885 38.332 58.753 39.324 59.585 40.242 60.38ZM57.004 47.373L48.78 36.768C48.764 36.747 48.667 36.747 48.488 36.767 48.306 36.782 48.115 36.808 47.915 36.844 47.711 36.876 47.503 36.902 47.292 36.922 47.084 36.948 46.932 36.965 46.836 36.972V36.972C46.518 36.932 46.169 36.868 45.79 36.782 45.407 36.691 44.978 36.34 44.504 35.728V35.728C44.181 35.312 44.077 35.008 44.191 34.818 44.301 34.623 44.46 34.479 44.667 34.386V34.386C44.856 34.315 45.15 34.21 45.548 34.07 45.956 33.931 46.397 33.809 46.872 33.702 47.346 33.596 47.823 33.509 48.303 33.441 48.772 33.372 49.164 33.339 49.478 33.34V33.34C49.924 32.783 50.358 32.282 50.781 31.836 51.205 31.381 51.712 30.924 52.302 30.466V30.466C53.9 29.228 55.539 28.387 57.222 27.943 58.905 27.49 60.559 27.407 62.182 27.693 63.805 27.979 65.359 28.606 66.844 29.574 68.329 30.541 69.683 31.813 70.905 33.39V33.39C72.09 34.919 72.872 36.579 73.249 38.372 73.626 40.165 73.665 41.929 73.364 43.665 73.068 45.406 72.478 47.041 71.596 48.569 70.709 50.093 69.609 51.364 68.296 52.382V52.382C67.706 52.84 67.279 53.057 67.015 53.033 66.752 53.009 66.578 52.942 66.492 52.831V52.831C66.341 52.636 66.298 52.391 66.364 52.095 66.43 51.799 66.556 51.456 66.744 51.066 66.931 50.676 67.158 50.255 67.424 49.804 67.69 49.352 67.94 48.897 68.175 48.436V48.436C68.608 47.678 68.958 46.807 69.225 45.823 69.497 44.845 69.623 43.81 69.604 42.719 69.584 41.637 69.4 40.529 69.054 39.397 68.702 38.268 68.119 37.179 67.306 36.13V36.13C66.472 35.054 65.546 34.122 64.529 33.332 63.52 32.544 62.443 31.999 61.298 31.697 60.148 31.39 58.921 31.391 57.616 31.702 56.312 32.012 54.962 32.709 53.565 33.793V33.793C52.974 34.251 52.41 34.743 51.873 35.269V35.269C52.831 36.418 53.765 37.568 54.675 38.719 55.585 39.871 56.498 41.037 57.413 42.218V42.218C58.329 43.399 59.123 44.455 59.794 45.387 60.47 46.323 61.133 47.325 61.782 48.391V48.391C62.08 48.861 62.424 49.464 62.816 50.198 63.204 50.927 63.554 51.661 63.865 52.399 64.179 53.143 64.408 53.818 64.55 54.426 64.686 55.037 64.647 55.477 64.433 55.745V55.745C64.338 55.894 64.045 55.876 63.555 55.691 63.064 55.515 62.585 55.257 62.12 54.917V54.917C61.855 54.489 61.58 54.036 61.293 53.557 61.012 53.075 60.675 52.538 60.284 51.946 59.893 51.355 59.433 50.686 58.905 49.939 58.382 49.188 57.748 48.333 57.004 47.373ZM120.631 5.349V5.349C119.987 5.675 119.429 6.072 118.957 6.54 118.485 7.007 118.078 7.502 117.736 8.023 117.399 8.537 117.113 9.066 116.876 9.61 116.645 10.154 116.454 10.648 116.303 11.091V11.091C116.153 11.588 116.045 12.159 115.98 12.805 115.92 13.443 115.9 14.098 115.92 14.771 115.946 15.436 115.993 16.087 116.062 16.724 116.136 17.354 116.226 17.914 116.331 18.404V18.404C116.505 19.106 116.772 19.884 117.132 20.739 117.492 21.593 117.952 22.394 118.511 23.142 119.065 23.898 119.727 24.528 120.497 25.033 121.261 25.539 122.133 25.797 123.115 25.809V25.809C123.708 25.801 124.282 25.733 124.835 25.603 125.388 25.467 125.893 25.309 126.35 25.127 126.813 24.938 127.23 24.736 127.601 24.521 127.972 24.306 128.285 24.11 128.54 23.934V23.934C128.821 23.747 129.154 23.505 129.538 23.206 129.922 22.901 130.304 22.627 130.683 22.384 131.07 22.139 131.436 21.956 131.781 21.833 132.126 21.71 132.38 21.733 132.542 21.903V21.903C132.742 22.094 132.823 22.368 132.786 22.726 132.742 23.084 132.617 23.482 132.41 23.921 132.197 24.361 131.923 24.803 131.589 25.249 131.255 25.694 130.909 26.101 130.549 26.47V26.47C129.866 27.14 128.996 27.763 127.94 28.338 126.884 28.913 125.811 29.301 124.722 29.503V29.503C123.225 29.777 121.739 29.78 120.263 29.51 118.787 29.24 117.501 28.659 116.405 27.767V27.767C115.763 27.256 115.162 26.568 114.605 25.705 114.047 24.842 113.56 23.89 113.143 22.849 112.719 21.808 112.375 20.715 112.109 19.568 111.837 18.416 111.684 17.296 111.651 16.206V16.206C111.609 14.895 111.723 13.499 111.992 12.016 112.253 10.528 112.726 9.118 113.41 7.785 114.096 6.459 115.014 5.274 116.164 4.231 117.315 3.195 118.737 2.457 120.43 2.016V2.016C121.161 1.811 121.95 1.698 122.798 1.676 123.653 1.654 124.43 1.698 125.13 1.809 125.837 1.918 126.429 2.073 126.908 2.273 127.393 2.479 127.64 2.693 127.649 2.915V2.915C127.643 3.253 127.532 3.531 127.317 3.748 127.101 3.965 126.828 4.134 126.496 4.255 126.165 4.383 125.814 4.469 125.443 4.515 125.072 4.561 124.73 4.579 124.418 4.569V4.569C123.717 4.539 123.059 4.584 122.443 4.703 121.832 4.815 121.228 5.03 120.631 5.349ZM150.178 0.019V0.019C151.918 0.097 153.414 0.544 154.666 1.361 155.918 2.179 156.94 3.223 157.732 4.494 158.516 5.764 159.084 7.175 159.436 8.727 159.781 10.278 159.918 11.83 159.849 13.383V13.383C159.765 15.263 159.394 17.066 158.736 18.793 158.071 20.526 157.165 22.038 156.019 23.33 154.866 24.62 153.488 25.634 151.886 26.37 150.291 27.101 148.523 27.422 146.584 27.336V27.336C144.704 27.252 143.073 26.848 141.69 26.125 140.313 25.396 139.171 24.423 138.264 23.208 137.363 21.985 136.715 20.571 136.32 18.964 135.918 17.35 135.759 15.603 135.842 13.723V13.723C135.931 11.731 136.312 9.874 136.983 8.155 137.66 6.442 138.608 4.968 139.825 3.734 141.042 2.499 142.517 1.547 144.25 0.876 145.989 0.206 147.965-0.08 150.178 0.019ZM149.364 3.228V3.228C147.817 3.159 146.442 3.442 145.239 4.076 144.028 4.716 142.998 5.572 142.149 6.642 141.293 7.713 140.628 8.915 140.155 10.25 139.681 11.591 139.414 12.925 139.355 14.251V14.251C139.312 15.217 139.41 16.24 139.649 17.319 139.894 18.399 140.324 19.396 140.937 20.312 141.545 21.22 142.362 21.992 143.389 22.625 144.416 23.252 145.676 23.599 147.169 23.665V23.665C148.575 23.728 149.834 23.424 150.946 22.752 152.058 22.081 152.992 21.201 153.748 20.113 154.505 19.025 155.093 17.819 155.513 16.495 155.933 15.165 156.171 13.877 156.226 12.63V12.63C156.273 11.584 156.167 10.514 155.909 9.421 155.65 8.327 155.244 7.331 154.69 6.431 154.135 5.538 153.414 4.795 152.526 4.201 151.637 3.607 150.583 3.283 149.364 3.228ZM172.01 12.062L171.1 15.299C170.605 17.059 170.104 18.744 169.596 20.354 169.079 21.969 168.612 23.321 168.195 24.41V24.41C168.079 24.724 167.837 25.179 167.468 25.775 167.098 26.378 166.679 26.967 166.213 27.543 165.748 28.112 165.268 28.587 164.772 28.967 164.277 29.348 163.844 29.486 163.471 29.381V29.381C163.285 29.329 163.098 29.203 162.911 29.005 162.725 28.807 162.672 28.564 162.753 28.275V28.275C162.769 28.217 162.861 28.062 163.029 27.812 163.205 27.556 163.329 27.397 163.402 27.334V27.334C163.848 26.365 164.339 25.051 164.874 23.393 165.418 21.73 165.968 19.934 166.524 18.004 167.081 16.075 167.635 14.103 168.188 12.089 168.74 10.075 169.256 8.214 169.737 6.506V6.506C169.789 6.32 169.72 6.148 169.528 5.99 169.342 5.84 169.122 5.685 168.869 5.524 168.608 5.367 168.335 5.207 168.048 5.043 167.77 4.875 167.569 4.701 167.447 4.521V4.521C167.468 4.125 167.543 3.772 167.672 3.461 167.805 3.159 168.022 2.978 168.324 2.917V2.917C168.749 2.836 169.235 2.82 169.782 2.87 170.327 2.926 170.812 3.028 171.235 3.174V3.174C171.729 3.341 172.206 3.576 172.669 3.879 173.131 4.182 173.498 4.615 173.77 5.176V5.176C173.887 5.473 174.036 5.941 174.217 6.58 174.397 7.22 174.597 7.952 174.816 8.776 175.028 9.598 175.248 10.443 175.475 11.311 175.709 12.18 175.938 12.979 176.163 13.708 176.39 14.43 176.608 15.035 176.817 15.524 177.024 16.019 177.208 16.289 177.369 16.334V16.334C177.581 16.393 177.996 16.223 178.615 15.821 179.227 15.418 179.911 14.921 180.666 14.33 181.423 13.732 182.187 13.111 182.957 12.468 183.735 11.821 184.385 11.283 184.907 10.855V10.855C185.334 10.545 185.718 10.202 186.059 9.827 186.396 9.443 186.73 9.091 187.064 8.769 187.397 8.446 187.752 8.207 188.129 8.049 188.504 7.898 188.945 7.894 189.452 8.037V8.037C189.85 8.149 190.114 8.382 190.243 8.737 190.374 9.086 190.432 9.445 190.418 9.816V9.816C190.369 11.098 190.131 12.427 189.702 13.804 189.273 15.18 188.834 16.668 188.385 18.267V18.267C188.137 19.147 187.921 19.89 187.737 20.497 187.551 21.11 187.365 21.719 187.181 22.326 186.997 22.932 186.784 23.614 186.543 24.371 186.298 25.12 185.998 26.078 185.641 27.246V27.246C185.459 27.798 185.253 28.43 185.025 29.142 184.797 29.854 184.532 30.563 184.23 31.268 183.934 31.974 183.593 32.634 183.206 33.246 182.819 33.858 182.369 34.348 181.857 34.717V34.717C181.683 34.841 181.503 34.877 181.317 34.825V34.825C181.022 34.742 180.848 34.437 180.795 33.909 180.744 33.375 180.757 32.786 180.834 32.142 180.916 31.507 181.016 30.904 181.135 30.335 181.247 29.764 181.329 29.385 181.381 29.198V29.198C181.904 26.726 182.564 24.278 183.363 21.855 184.162 19.433 184.818 17.001 185.331 14.56V14.56C184.677 15.236 183.903 15.943 183.009 16.683 182.106 17.427 181.209 18.103 180.317 18.712 179.43 19.329 178.592 19.807 177.804 20.147 177.015 20.486 176.409 20.596 175.985 20.477V20.477C175.504 20.342 175.083 20.05 174.724 19.603 174.358 19.153 174.047 18.647 173.79 18.082 173.531 17.524 173.323 16.957 173.167 16.379 173.017 15.803 172.897 15.316 172.809 14.917V14.917C172.695 14.483 172.551 14.02 172.378 13.527 172.198 13.033 172.076 12.545 172.01 12.062ZM199.172 16.347V16.347C199.262 16.176 199.231 15.956 199.08 15.687 198.922 15.414 198.768 15.099 198.618 14.74 198.462 14.379 198.35 13.984 198.283 13.555 198.209 13.124 198.302 12.663 198.561 12.174V12.174C198.676 11.956 198.799 11.817 198.928 11.757 199.052 11.694 199.177 11.666 199.302 11.672 199.421 11.675 199.531 11.702 199.631 11.755 199.731 11.809 199.817 11.854 199.888 11.891V11.891C200.277 12.097 200.67 12.373 201.068 12.72 201.463 13.072 201.813 13.446 202.117 13.841 202.427 14.239 202.688 14.637 202.9 15.036 203.114 15.429 203.238 15.774 203.27 16.07V16.07C204.011 16.024 204.827 16.15 205.719 16.449 206.607 16.753 207.431 17.106 208.192 17.508V17.508C209.218 18.051 210.115 18.711 210.882 19.486 211.645 20.268 212.213 21.164 212.583 22.176V22.176C213.001 23.34 213.091 24.547 212.854 25.794 212.613 27.048 212.221 28.188 211.678 29.214V29.214C211.094 30.317 210.292 31.092 209.27 31.54 208.251 31.982 207.155 32.206 205.982 32.212 204.803 32.215 203.626 32.056 202.452 31.737 201.275 31.408 200.247 31.011 199.368 30.546V30.546C198.56 30.119 198.125 29.757 198.064 29.46 198.002 29.163 198.01 28.941 198.088 28.793V28.793C198.178 28.622 198.449 28.554 198.898 28.588 199.348 28.623 199.896 28.686 200.541 28.778 201.184 28.862 201.897 28.948 202.68 29.038 203.466 29.122 204.224 29.123 204.954 29.041 205.684 28.96 206.364 28.772 206.994 28.48 207.619 28.184 208.114 27.691 208.479 27.001V27.001C208.71 26.564 208.878 26.012 208.983 25.343 209.085 24.679 209.071 23.993 208.941 23.282 208.817 22.575 208.56 21.892 208.169 21.232 207.787 20.57 207.228 20.044 206.491 19.654V19.654C205.854 19.317 205.187 19.073 204.489 18.923 203.785 18.769 203.022 18.728 202.2 18.798V18.798C201.644 19.848 201.024 21.048 200.339 22.399 199.658 23.744 198.988 25.039 198.329 26.283V26.283C197.668 27.533 196.991 28.741 196.298 29.907 195.603 31.079 194.927 32.193 194.27 33.249V33.249C193.971 33.756 193.57 34.321 193.067 34.945 192.563 35.569 192.03 36.133 191.47 36.636 190.903 37.136 190.364 37.534 189.853 37.83 189.339 38.116 188.923 38.175 188.604 38.007V38.007C188.557 37.982 188.49 37.916 188.403 37.81 188.316 37.703 188.243 37.563 188.184 37.388 188.12 37.211 188.077 37.007 188.055 36.777 188.04 36.549 188.075 36.319 188.161 36.085V36.085C188.495 35.696 188.974 35.062 189.597 34.184 190.217 33.312 190.805 32.378 191.363 31.383V31.383C191.876 30.469 192.443 29.441 193.063 28.297 193.683 27.153 194.328 25.936 194.996 24.644 195.665 23.352 196.357 22.001 197.073 20.591 197.786 19.187 198.485 17.772 199.172 16.347ZM233.202 44.405L227.891 51.063C226.856 52.361 225.75 53.459 224.574 54.356 223.394 55.258 222.163 55.881 220.882 56.224 219.601 56.568 218.288 56.583 216.942 56.269 215.596 55.956 214.238 55.235 212.867 54.108V54.108C211.544 53.018 210.652 51.862 210.191 50.642 209.727 49.427 209.57 48.179 209.72 46.9 209.876 45.624 210.278 44.333 210.929 43.025 211.579 41.718 212.368 40.461 213.296 39.255V39.255C213.741 38.654 214.191 38.058 214.646 37.465 215.102 36.873 215.579 36.263 216.078 35.638 216.582 35.007 217.118 34.334 217.688 33.619 218.258 32.905 218.87 32.138 219.523 31.319V31.319C219.421 31.093 219.287 30.807 219.12 30.46 218.953 30.113 218.803 29.755 218.671 29.385 218.539 29.016 218.451 28.672 218.406 28.354 218.36 28.037 218.417 27.779 218.575 27.58V27.58C218.712 27.408 218.946 27.356 219.276 27.423 219.612 27.495 219.966 27.628 220.34 27.823 220.722 28.017 221.095 28.251 221.458 28.523 221.826 28.8 222.12 29.064 222.338 29.314V29.314C223.074 30.038 223.553 30.727 223.774 31.381 223.995 32.035 223.793 32.754 223.169 33.536V33.536C222.067 34.918 221.006 36.248 219.987 37.526 218.968 38.804 217.863 40.21 216.673 41.744V41.744C216.004 42.584 215.405 43.468 214.879 44.396 214.352 45.324 213.988 46.246 213.787 47.161 213.587 48.085 213.604 48.969 213.836 49.811 214.068 50.645 214.617 51.406 215.482 52.097V52.097C216.265 52.721 217.065 53.061 217.883 53.116 218.71 53.17 219.531 53.018 220.345 52.66 221.165 52.307 221.978 51.769 222.784 51.047 223.59 50.325 224.364 49.499 225.104 48.571V48.571C225.641 47.898 226.16 47.258 226.661 46.651 227.163 46.044 227.652 45.44 228.131 44.841 228.605 44.246 229.082 43.637 229.563 43.013 230.043 42.389 230.547 41.72 231.074 41.006V41.006C231.249 40.787 231.432 40.514 231.623 40.189 231.814 39.864 232.002 39.527 232.186 39.179 232.375 38.835 232.538 38.486 232.673 38.134 232.815 37.786 232.907 37.471 232.952 37.191V37.191C232.981 37.069 233.022 36.906 233.075 36.7 233.133 36.499 233.206 36.31 233.296 36.134 233.38 35.954 233.478 35.793 233.59 35.652 233.703 35.511 233.836 35.435 233.992 35.422V35.422C234.189 35.4 234.381 35.49 234.57 35.691 234.764 35.897 234.93 36.145 235.067 36.433 235.209 36.726 235.33 37.044 235.431 37.389 235.526 37.73 235.579 38.027 235.588 38.283V38.283C235.633 38.847 235.592 39.407 235.464 39.963 235.342 40.523 235.169 41.067 234.943 41.595 234.713 42.12 234.444 42.622 234.137 43.103 233.826 43.58 233.514 44.014 233.202 44.405ZM238.197 59.179L245.871 52.694C245.209 51.952 244.547 51.189 243.884 50.404 243.225 49.624 242.64 48.87 242.128 48.14V48.14C242.038 48.033 241.953 47.825 241.875 47.515 241.793 47.201 241.729 46.866 241.683 46.512 241.632 46.153 241.621 45.809 241.649 45.48 241.677 45.141 241.775 44.901 241.944 44.759V44.759C242.071 44.651 242.216 44.621 242.377 44.667 242.544 44.71 242.715 44.793 242.889 44.916 243.063 45.04 243.244 45.176 243.43 45.324 243.616 45.482 243.762 45.624 243.87 45.751V45.751C244.174 46.071 244.692 46.621 245.421 47.402 246.156 48.178 246.969 49.042 247.859 49.992 248.75 50.943 249.654 51.926 250.573 52.94 251.49 53.964 252.307 54.859 253.024 55.625V55.625C253.08 55.691 253.224 55.861 253.457 56.137 253.689 56.412 253.906 56.709 254.106 57.029 254.301 57.353 254.46 57.67 254.58 57.978 254.7 58.296 254.666 58.534 254.478 58.694V58.694C254.35 58.801 254.156 58.891 253.894 58.964 253.631 59.046 253.354 59.084 253.061 59.079 252.768 59.073 252.47 59.031 252.169 58.954 251.872 58.882 251.624 58.769 251.424 58.615V58.615C251.052 58.309 250.646 57.927 250.206 57.468 249.762 57.005 249.202 56.373 248.526 55.573V55.573L240.431 62.413C239.759 62.981 238.891 63.623 237.827 64.339 236.763 65.054 235.651 65.701 234.489 66.281 233.333 66.865 232.197 67.309 231.082 67.613 229.963 67.922 229.032 67.957 228.29 67.72V67.72C227.939 67.614 227.651 67.413 227.425 67.114 227.194 66.82 227.074 66.585 227.065 66.409V66.409C227.066 66.234 227.176 66.106 227.396 66.025 227.62 65.949 227.802 65.887 227.944 65.837V65.837C228.817 65.536 229.704 65.14 230.607 64.648 231.515 64.151 232.406 63.608 233.279 63.019 234.153 62.42 235.007 61.787 235.839 61.118 236.672 60.449 237.458 59.803 238.197 59.179ZM257.843 70.357L251.16 74.409C251.961 75.539 252.733 76.653 253.475 77.748 254.219 78.835 254.941 79.943 255.64 81.071V81.071C256.058 81.724 256.276 82.269 256.295 82.707 256.315 83.146 256.272 83.415 256.169 83.515V83.515C255.993 83.65 255.729 83.748 255.378 83.809 255.026 83.87 254.647 83.877 254.24 83.832 253.827 83.789 253.435 83.684 253.064 83.516 252.687 83.351 252.407 83.114 252.224 82.804V82.804C251.588 81.731 250.939 80.595 250.276 79.398 249.616 78.192 248.993 77.041 248.406 75.947V75.947C247.134 76.731 245.81 77.441 244.435 78.078 243.059 78.714 241.922 79.17 241.024 79.447V79.447C241.196 79.856 241.508 80.494 241.959 81.359 242.406 82.218 243.01 83.291 243.771 84.577V84.577C244.479 85.771 245.169 86.793 245.843 87.642 246.525 88.494 247.165 89.259 247.76 89.937V89.937C247.702 90.166 247.551 90.344 247.309 90.472 247.061 90.603 246.785 90.693 246.481 90.742 246.174 90.799 245.877 90.816 245.591 90.792 245.305 90.767 245.089 90.717 244.943 90.64V90.64C244.557 90.419 243.948 89.896 243.118 89.07 242.293 88.24 241.459 87.172 240.615 85.865V85.865C240.31 85.402 240.005 84.9 239.7 84.36 239.392 83.813 239.11 83.279 238.854 82.755 238.593 82.236 238.367 81.749 238.176 81.296 237.995 80.845 237.864 80.5 237.784 80.261V80.261C237.583 80.248 237.361 80.201 237.119 80.12 236.877 80.038 236.645 79.928 236.422 79.788 236.191 79.646 235.986 79.476 235.807 79.28 235.62 79.081 235.507 78.864 235.47 78.631V78.631C235.44 78.424 235.498 78.253 235.644 78.12 235.79 77.987 235.985 77.864 236.228 77.751 236.465 77.642 236.733 77.537 237.031 77.438 237.333 77.345 237.626 77.245 237.912 77.138V77.138C239.633 76.405 241.311 75.598 242.944 74.716 244.574 73.828 246.152 72.932 247.679 72.028 249.206 71.123 250.67 70.225 252.072 69.332 253.474 68.44 254.81 67.599 256.079 66.808V66.808C255.972 66.197 255.956 65.613 256.03 65.057 256.101 64.496 256.311 64 256.66 63.568V63.568C256.776 63.437 256.928 63.366 257.116 63.356 257.3 63.34 257.486 63.366 257.673 63.433 257.861 63.5 258.026 63.589 258.168 63.698 258.307 63.802 258.387 63.898 258.408 63.986V63.986C258.559 65.052 258.952 66.122 259.588 67.196V67.196C260.6 68.852 261.611 70.355 262.619 71.704 263.627 73.053 264.676 74.483 265.764 75.994V75.994C265.886 76.147 266.003 76.357 266.114 76.624 266.229 76.897 266.316 77.168 266.374 77.436 266.441 77.706 266.466 77.951 266.449 78.171 266.431 78.39 266.351 78.543 266.208 78.628V78.628C266.018 78.74 265.763 78.794 265.443 78.79 265.117 78.789 264.779 78.749 264.429 78.669 264.071 78.587 263.722 78.463 263.385 78.299 263.043 78.129 262.778 77.937 262.59 77.723V77.723C261.708 76.509 260.901 75.323 260.17 74.167 259.435 73.005 258.659 71.735 257.843 70.357ZM254.001 92.39L268.06 87.189C268.348 87.082 268.544 86.853 268.649 86.501 268.756 86.156 268.776 85.729 268.708 85.22V85.22C268.691 85.02 268.661 84.775 268.618 84.485 268.566 84.192 268.626 83.999 268.799 83.906V83.906C268.93 83.858 269.081 83.852 269.251 83.889 269.429 83.929 269.609 83.991 269.789 84.074 269.966 84.15 270.128 84.25 270.274 84.374 270.425 84.496 270.533 84.606 270.598 84.703V84.703C271.279 85.66 271.636 86.605 271.669 87.539 271.701 88.473 271.501 89.152 271.067 89.576V89.576C271.761 90.087 272.469 90.8 273.192 91.714 273.914 92.627 274.491 93.669 274.924 94.839V94.839C275.376 96.059 275.558 97.215 275.471 98.307 275.391 99.397 275.112 100.393 274.634 101.295 274.157 102.197 273.522 102.98 272.729 103.643 271.942 104.304 271.07 104.812 270.113 105.166V105.166C269.568 105.367 268.95 105.493 268.257 105.543 267.562 105.587 266.848 105.495 266.117 105.268 265.383 105.034 264.641 104.623 263.889 104.033 263.137 103.443 262.412 102.598 261.713 101.498V101.498C259.35 102.607 257.469 104.128 256.071 106.061 254.673 107.994 253.727 110.204 253.232 112.692V112.692C253.126 113.115 252.952 113.386 252.711 113.504 252.476 113.619 252.267 113.593 252.084 113.426V113.426C251.917 113.281 251.692 112.913 251.409 112.321 251.134 111.732 250.971 111.05 250.918 110.272V110.272C250.854 108.909 251.114 107.632 251.698 106.441 252.276 105.253 253.019 104.156 253.928 103.151 254.845 102.151 255.847 101.264 256.934 100.492 258.022 99.72 259.049 99.084 260.016 98.583V98.583C259.845 98.199 259.619 97.692 259.336 97.064 259.058 96.427 258.774 95.717 258.485 94.935V94.935C257.578 95.271 256.676 95.583 255.78 95.872 254.884 96.161 253.959 96.421 253.006 96.653V96.653C252.766 96.713 252.277 96.805 251.54 96.929 250.805 97.058 250.021 97.149 249.187 97.202 248.349 97.263 247.579 97.238 246.876 97.128 246.174 97.018 245.746 96.757 245.594 96.344V96.344C245.575 96.294 245.568 96.179 245.573 95.999 245.578 95.82 245.617 95.627 245.69 95.422 245.764 95.217 245.872 95.028 246.014 94.854 246.158 94.687 246.36 94.598 246.619 94.588V94.588C246.887 94.581 247.277 94.511 247.79 94.379 248.297 94.248 248.884 94.084 249.55 93.887 250.215 93.684 250.927 93.456 251.688 93.203 252.454 92.948 253.225 92.677 254.001 92.39ZM260.475 94.199V94.199C260.855 94.919 261.313 95.763 261.849 96.732 262.385 97.7 263.001 98.585 263.696 99.388 264.392 100.191 265.172 100.802 266.039 101.221 266.899 101.642 267.864 101.655 268.934 101.259V101.259C269.272 101.134 269.672 100.898 270.133 100.549 270.595 100.2 270.985 99.746 271.304 99.187 271.63 98.626 271.842 97.957 271.939 97.181 272.036 96.406 271.902 95.523 271.536 94.535V94.535C271.286 93.859 270.959 93.236 270.557 92.667 270.152 92.091 269.593 91.523 268.88 90.961V90.961C266.959 91.672 265.364 92.283 264.095 92.795 262.82 93.31 261.613 93.778 260.475 94.199Z" fill="#ffffff" data-fill-palette-color="quaternary"></path><path d="M11.111 143.152c0-1.816 1.472-3.288 3.288-3.288 1.816 0 3.288 1.472 3.288 3.288 0 1.816-1.472 3.288-3.288 3.287-1.816 0-3.288-1.472-3.288-3.287zM263.046 143.152c0-1.816 1.472-3.288 3.288-3.288 1.816 0 3.288 1.472 3.288 3.288 0 1.816-1.472 3.288-3.288 3.287-1.816 0-3.288-1.472-3.288-3.287z" fill="#ffffff" data-fill-palette-color="quaternary"></path></svg></g></svg></g></svg></g><g></g></svg></g></svg></g></svg></g><defs></defs></svg><rect width="512" height="320" fill="none" stroke="none" visibility="hidden"></rect></g></svg></g></svg>